<svg width="24" height="24" viewBox="0 0 24 24" fill="none" xmlns="http://www.w3.org/2000/svg">
<path d="M13.5005 10.4999L8.2505 15.7499M13.3729 10.1719L10.7448 3.4139C10.5133 2.8185 10.3975 2.5209 10.2307 2.434C10.0861 2.3586 9.9138 2.3585 9.7692 2.4337C9.6023 2.5204 9.4861 2.8179 9.2539 3.413L2.6636 20.3008C2.4539 20.8379 2.3491 21.1065 2.4065 21.2782C2.4563 21.4272 2.5732 21.5442 2.7223 21.594C2.8939 21.6513 3.1625 21.5465 3.6997 21.3369L20.5874 14.7465C21.1825 14.5143 21.48 14.3982 21.5667 14.2313C21.6419 14.0866 21.6418 13.9143 21.5665 13.7697C21.4796 13.6029 21.1819 13.4872 20.5866 13.2556L13.8285 10.6275C13.7077 10.5805 13.6473 10.557 13.5964 10.5207C13.5513 10.4886 13.5119 10.4491 13.4797 10.404C13.4434 10.3532 13.4199 10.2927 13.3729 10.1719Z" stroke="black" stroke-width="2" stroke-linecap="round" stroke-linejoin="round"/>
<path d="M13.5005 10.4999L8.2505 15.7499M13.3729 10.1719L10.7448 3.4139C10.5133 2.8185 10.3975 2.5209 10.2307 2.434C10.0861 2.3586 9.9138 2.3585 9.7692 2.4337C9.6023 2.5204 9.4861 2.8179 9.2539 3.413L2.6636 20.3008C2.4539 20.8379 2.3491 21.1065 2.4065 21.2782C2.4563 21.4272 2.5732 21.5442 2.7223 21.594C2.8939 21.6513 3.1625 21.5465 3.6997 21.3369L20.5874 14.7465C21.1825 14.5143 21.48 14.3982 21.5667 14.2313C21.6419 14.0866 21.6418 13.9143 21.5665 13.7697C21.4796 13.6029 21.1819 13.4872 20.5866 13.2556L13.8285 10.6275C13.7077 10.5805 13.6473 10.557 13.5964 10.5207C13.5513 10.4886 13.5119 10.4491 13.4797 10.404C13.4434 10.3532 13.4199 10.2927 13.3729 10.1719Z" stroke="black" stroke-width="2" stroke-linecap="round" stroke-linejoin="round"/>
</svg>
